<?xml version="1.0" encoding="utf-8" standalone="no"?>
<!DOCTYPE svg PUBLIC "-//W3C//DTD SVG 1.1//EN"
  "http://www.w3.org/Graphics/SVG/1.1/DTD/svg11.dtd">
<svg xmlns:xlink="http://www.w3.org/1999/xlink" width="408.10125pt" height="314.477158pt" viewBox="0 0 408.10125 314.477158" xmlns="http://www.w3.org/2000/svg" version="1.1">
 <metadata>
  <rdf:RDF xmlns:dc="http://purl.org/dc/elements/1.1/" xmlns:cc="http://creativecommons.org/ns#" xmlns:rdf="http://www.w3.org/1999/02/22-rdf-syntax-ns#">
   <cc:Work>
    <dc:type rdf:resource="http://purl.org/dc/dcmitype/StillImage"/>
    <dc:date>(c) 2021-2025 Stefanie Molin</dc:date>
    <dc:format>image/svg+xml</dc:format>
    <dc:creator>
     <cc:Agent>
      <dc:title>Matplotlib v3.10.3, https://matplotlib.org/</dc:title>
     </cc:Agent>
    </dc:creator>
   </cc:Work>
  </rdf:RDF>
 </metadata>
 <defs>
  <style type="text/css">*{stroke-linejoin: round; stroke-linecap: butt}</style>
 </defs>
 <g id="figure_1">
  <g id="patch_1">
   <path d="M 0 314.477158 
L 408.10125 314.477158 
L 408.10125 0 
L 0 0 
z
" style="fill: #ffffff"/>
  </g>
  <g id="axes_1">
   <g id="patch_2">
    <path d="M 43.78125 257.326125 
L 400.90125 257.326125 
L 400.90125 22.318125 
L 43.78125 22.318125 
z
" style="fill: #ffffff"/>
   </g>
   <g id="matplotlib.axis_1">
    <g id="xtick_1">
     <g id="line2d_1">
      <defs>
       <path id="mf8cac93d9d" d="M 0 0 
L 0 3.5 
" style="stroke: #000000; stroke-width: 0.8"/>
      </defs>
      <g>
       <use xlink:href="#mf8cac93d9d" x="60.013977" y="257.326125" style="stroke: #000000; stroke-width: 0.8"/>
      </g>
     </g>
     <g id="text_1">
      <!-- 2020-01 -->
      <g transform="translate(22.789156 291.797971) rotate(-30) scale(0.1 -0.1)">
       <defs>
        <path id="DejaVuSans-32" d="M 1228 531 
L 3431 531 
L 3431 0 
L 469 0 
L 469 531 
Q 828 903 1448 1529 
Q 2069 2156 2228 2338 
Q 2531 2678 2651 2914 
Q 2772 3150 2772 3378 
Q 2772 3750 2511 3984 
Q 2250 4219 1831 4219 
Q 1534 4219 1204 4116 
Q 875 4013 500 3803 
L 500 4441 
Q 881 4594 1212 4672 
Q 1544 4750 1819 4750 
Q 2544 4750 2975 4387 
Q 3406 4025 3406 3419 
Q 3406 3131 3298 2873 
Q 3191 2616 2906 2266 
Q 2828 2175 2409 1742 
Q 1991 1309 1228 531 
z
" transform="scale(0.015625)"/>
        <path id="DejaVuSans-30" d="M 2034 4250 
Q 1547 4250 1301 3770 
Q 1056 3291 1056 2328 
Q 1056 1369 1301 889 
Q 1547 409 2034 409 
Q 2525 409 2770 889 
Q 3016 1369 3016 2328 
Q 3016 3291 2770 3770 
Q 2525 4250 2034 4250 
z
M 2034 4750 
Q 2819 4750 3233 4129 
Q 3647 3509 3647 2328 
Q 3647 1150 3233 529 
Q 2819 -91 2034 -91 
Q 1250 -91 836 529 
Q 422 1150 422 2328 
Q 422 3509 836 4129 
Q 1250 4750 2034 4750 
z
" transform="scale(0.015625)"/>
        <path id="DejaVuSans-2d" d="M 313 2009 
L 1997 2009 
L 1997 1497 
L 313 1497 
L 313 2009 
z
" transform="scale(0.015625)"/>
        <path id="DejaVuSans-31" d="M 794 531 
L 1825 531 
L 1825 4091 
L 703 3866 
L 703 4441 
L 1819 4666 
L 2450 4666 
L 2450 531 
L 3481 531 
L 3481 0 
L 794 0 
L 794 531 
z
" transform="scale(0.015625)"/>
       </defs>
       <use xlink:href="#DejaVuSans-32"/>
       <use xlink:href="#DejaVuSans-30" transform="translate(63.623047 0)"/>
       <use xlink:href="#DejaVuSans-32" transform="translate(127.246094 0)"/>
       <use xlink:href="#DejaVuSans-30" transform="translate(190.869141 0)"/>
       <use xlink:href="#DejaVuSans-2d" transform="translate(254.492188 0)"/>
       <use xlink:href="#DejaVuSans-30" transform="translate(290.576172 0)"/>
       <use xlink:href="#DejaVuSans-31" transform="translate(354.199219 0)"/>
      </g>
     </g>
    </g>
    <g id="xtick_2">
     <g id="line2d_2">
      <g>
       <use xlink:href="#mf8cac93d9d" x="113.381848" y="257.326125" style="stroke: #000000; stroke-width: 0.8"/>
      </g>
     </g>
     <g id="text_2">
      <!-- 2020-03 -->
      <g transform="translate(76.157027 291.797971) rotate(-30) scale(0.1 -0.1)">
       <defs>
        <path id="DejaVuSans-33" d="M 2597 2516 
Q 3050 2419 3304 2112 
Q 3559 1806 3559 1356 
Q 3559 666 3084 287 
Q 2609 -91 1734 -91 
Q 1441 -91 1130 -33 
Q 819 25 488 141 
L 488 750 
Q 750 597 1062 519 
Q 1375 441 1716 441 
Q 2309 441 2620 675 
Q 2931 909 2931 1356 
Q 2931 1769 2642 2001 
Q 2353 2234 1838 2234 
L 1294 2234 
L 1294 2753 
L 1863 2753 
Q 2328 2753 2575 2939 
Q 2822 3125 2822 3475 
Q 2822 3834 2567 4026 
Q 2313 4219 1838 4219 
Q 1578 4219 1281 4162 
Q 984 4106 628 3988 
L 628 4550 
Q 988 4650 1302 4700 
Q 1616 4750 1894 4750 
Q 2613 4750 3031 4423 
Q 3450 4097 3450 3541 
Q 3450 3153 3228 2886 
Q 3006 2619 2597 2516 
z
" transform="scale(0.015625)"/>
       </defs>
       <use xlink:href="#DejaVuSans-32"/>
       <use xlink:href="#DejaVuSans-30" transform="translate(63.623047 0)"/>
       <use xlink:href="#DejaVuSans-32" transform="translate(127.246094 0)"/>
       <use xlink:href="#DejaVuSans-30" transform="translate(190.869141 0)"/>
       <use xlink:href="#DejaVuSans-2d" transform="translate(254.492188 0)"/>
       <use xlink:href="#DejaVuSans-30" transform="translate(290.576172 0)"/>
       <use xlink:href="#DejaVuSans-33" transform="translate(354.199219 0)"/>
      </g>
     </g>
    </g>
    <g id="xtick_3">
     <g id="line2d_3">
      <g>
       <use xlink:href="#mf8cac93d9d" x="167.639183" y="257.326125" style="stroke: #000000; stroke-width: 0.8"/>
      </g>
     </g>
     <g id="text_3">
      <!-- 2020-05 -->
      <g transform="translate(130.414362 291.797971) rotate(-30) scale(0.1 -0.1)">
       <defs>
        <path id="DejaVuSans-35" d="M 691 4666 
L 3169 4666 
L 3169 4134 
L 1269 4134 
L 1269 2991 
Q 1406 3038 1543 3061 
Q 1681 3084 1819 3084 
Q 2600 3084 3056 2656 
Q 3513 2228 3513 1497 
Q 3513 744 3044 326 
Q 2575 -91 1722 -91 
Q 1428 -91 1123 -41 
Q 819 9 494 109 
L 494 744 
Q 775 591 1075 516 
Q 1375 441 1709 441 
Q 2250 441 2565 725 
Q 2881 1009 2881 1497 
Q 2881 1984 2565 2268 
Q 2250 2553 1709 2553 
Q 1456 2553 1204 2497 
Q 953 2441 691 2322 
L 691 4666 
z
" transform="scale(0.015625)"/>
       </defs>
       <use xlink:href="#DejaVuSans-32"/>
       <use xlink:href="#DejaVuSans-30" transform="translate(63.623047 0)"/>
       <use xlink:href="#DejaVuSans-32" transform="translate(127.246094 0)"/>
       <use xlink:href="#DejaVuSans-30" transform="translate(190.869141 0)"/>
       <use xlink:href="#DejaVuSans-2d" transform="translate(254.492188 0)"/>
       <use xlink:href="#DejaVuSans-30" transform="translate(290.576172 0)"/>
       <use xlink:href="#DejaVuSans-35" transform="translate(354.199219 0)"/>
      </g>
     </g>
    </g>
    <g id="xtick_4">
     <g id="line2d_4">
      <g>
       <use xlink:href="#mf8cac93d9d" x="221.896518" y="257.326125" style="stroke: #000000; stroke-width: 0.8"/>
      </g>
     </g>
     <g id="text_4">
      <!-- 2020-07 -->
      <g transform="translate(184.671697 291.797971) rotate(-30) scale(0.1 -0.1)">
       <defs>
        <path id="DejaVuSans-37" d="M 525 4666 
L 3525 4666 
L 3525 4397 
L 1831 0 
L 1172 0 
L 2766 4134 
L 525 4134 
L 525 4666 
z
" transform="scale(0.015625)"/>
       </defs>
       <use xlink:href="#DejaVuSans-32"/>
       <use xlink:href="#DejaVuSans-30" transform="translate(63.623047 0)"/>
       <use xlink:href="#DejaVuSans-32" transform="translate(127.246094 0)"/>
       <use xlink:href="#DejaVuSans-30" transform="translate(190.869141 0)"/>
       <use xlink:href="#DejaVuSans-2d" transform="translate(254.492188 0)"/>
       <use xlink:href="#DejaVuSans-30" transform="translate(290.576172 0)"/>
       <use xlink:href="#DejaVuSans-37" transform="translate(354.199219 0)"/>
      </g>
     </g>
    </g>
    <g id="xtick_5">
     <g id="line2d_5">
      <g>
       <use xlink:href="#mf8cac93d9d" x="277.043317" y="257.326125" style="stroke: #000000; stroke-width: 0.8"/>
      </g>
     </g>
     <g id="text_5">
      <!-- 2020-09 -->
      <g transform="translate(239.818496 291.797971) rotate(-30) scale(0.1 -0.1)">
       <defs>
        <path id="DejaVuSans-39" d="M 703 97 
L 703 672 
Q 941 559 1184 500 
Q 1428 441 1663 441 
Q 2288 441 2617 861 
Q 2947 1281 2994 2138 
Q 2813 1869 2534 1725 
Q 2256 1581 1919 1581 
Q 1219 1581 811 2004 
Q 403 2428 403 3163 
Q 403 3881 828 4315 
Q 1253 4750 1959 4750 
Q 2769 4750 3195 4129 
Q 3622 3509 3622 2328 
Q 3622 1225 3098 567 
Q 2575 -91 1691 -91 
Q 1453 -91 1209 -44 
Q 966 3 703 97 
z
M 1959 2075 
Q 2384 2075 2632 2365 
Q 2881 2656 2881 3163 
Q 2881 3666 2632 3958 
Q 2384 4250 1959 4250 
Q 1534 4250 1286 3958 
Q 1038 3666 1038 3163 
Q 1038 2656 1286 2365 
Q 1534 2075 1959 2075 
z
" transform="scale(0.015625)"/>
       </defs>
       <use xlink:href="#DejaVuSans-32"/>
       <use xlink:href="#DejaVuSans-30" transform="translate(63.623047 0)"/>
       <use xlink:href="#DejaVuSans-32" transform="translate(127.246094 0)"/>
       <use xlink:href="#DejaVuSans-30" transform="translate(190.869141 0)"/>
       <use xlink:href="#DejaVuSans-2d" transform="translate(254.492188 0)"/>
       <use xlink:href="#DejaVuSans-30" transform="translate(290.576172 0)"/>
       <use xlink:href="#DejaVuSans-39" transform="translate(354.199219 0)"/>
      </g>
     </g>
    </g>
    <g id="xtick_6">
     <g id="line2d_6">
      <g>
       <use xlink:href="#mf8cac93d9d" x="331.300652" y="257.326125" style="stroke: #000000; stroke-width: 0.8"/>
      </g>
     </g>
     <g id="text_6">
      <!-- 2020-11 -->
      <g transform="translate(294.075831 291.797971) rotate(-30) scale(0.1 -0.1)">
       <use xlink:href="#DejaVuSans-32"/>
       <use xlink:href="#DejaVuSans-30" transform="translate(63.623047 0)"/>
       <use xlink:href="#DejaVuSans-32" transform="translate(127.246094 0)"/>
       <use xlink:href="#DejaVuSans-30" transform="translate(190.869141 0)"/>
       <use xlink:href="#DejaVuSans-2d" transform="translate(254.492188 0)"/>
       <use xlink:href="#DejaVuSans-31" transform="translate(290.576172 0)"/>
       <use xlink:href="#DejaVuSans-31" transform="translate(354.199219 0)"/>
      </g>
     </g>
    </g>
    <g id="xtick_7">
     <g id="line2d_7">
      <g>
       <use xlink:href="#mf8cac93d9d" x="385.557987" y="257.326125" style="stroke: #000000; stroke-width: 0.8"/>
      </g>
     </g>
     <g id="text_7">
      <!-- 2021-01 -->
      <g transform="translate(348.333166 291.797971) rotate(-30) scale(0.1 -0.1)">
       <use xlink:href="#DejaVuSans-32"/>
       <use xlink:href="#DejaVuSans-30" transform="translate(63.623047 0)"/>
       <use xlink:href="#DejaVuSans-32" transform="translate(127.246094 0)"/>
       <use xlink:href="#DejaVuSans-31" transform="translate(190.869141 0)"/>
       <use xlink:href="#DejaVuSans-2d" transform="translate(254.492188 0)"/>
       <use xlink:href="#DejaVuSans-30" transform="translate(290.576172 0)"/>
       <use xlink:href="#DejaVuSans-31" transform="translate(354.199219 0)"/>
      </g>
     </g>
    </g>
    <g id="text_8">
     <!-- date -->
     <g transform="translate(211.06625 305.197471) scale(0.1 -0.1)">
      <defs>
       <path id="DejaVuSans-64" d="M 2906 2969 
L 2906 4863 
L 3481 4863 
L 3481 0 
L 2906 0 
L 2906 525 
Q 2725 213 2448 61 
Q 2172 -91 1784 -91 
Q 1150 -91 751 415 
Q 353 922 353 1747 
Q 353 2572 751 3078 
Q 1150 3584 1784 3584 
Q 2172 3584 2448 3432 
Q 2725 3281 2906 2969 
z
M 947 1747 
Q 947 1113 1208 752 
Q 1469 391 1925 391 
Q 2381 391 2643 752 
Q 2906 1113 2906 1747 
Q 2906 2381 2643 2742 
Q 2381 3103 1925 3103 
Q 1469 3103 1208 2742 
Q 947 2381 947 1747 
z
" transform="scale(0.015625)"/>
       <path id="DejaVuSans-61" d="M 2194 1759 
Q 1497 1759 1228 1600 
Q 959 1441 959 1056 
Q 959 750 1161 570 
Q 1363 391 1709 391 
Q 2188 391 2477 730 
Q 2766 1069 2766 1631 
L 2766 1759 
L 2194 1759 
z
M 3341 1997 
L 3341 0 
L 2766 0 
L 2766 531 
Q 2569 213 2275 61 
Q 1981 -91 1556 -91 
Q 1019 -91 701 211 
Q 384 513 384 1019 
Q 384 1609 779 1909 
Q 1175 2209 1959 2209 
L 2766 2209 
L 2766 2266 
Q 2766 2663 2505 2880 
Q 2244 3097 1772 3097 
Q 1472 3097 1187 3025 
Q 903 2953 641 2809 
L 641 3341 
Q 956 3463 1253 3523 
Q 1550 3584 1831 3584 
Q 2591 3584 2966 3190 
Q 3341 2797 3341 1997 
z
" transform="scale(0.015625)"/>
       <path id="DejaVuSans-74" d="M 1172 4494 
L 1172 3500 
L 2356 3500 
L 2356 3053 
L 1172 3053 
L 1172 1153 
Q 1172 725 1289 603 
Q 1406 481 1766 481 
L 2356 481 
L 2356 0 
L 1766 0 
Q 1100 0 847 248 
Q 594 497 594 1153 
L 594 3053 
L 172 3053 
L 172 3500 
L 594 3500 
L 594 4494 
L 1172 4494 
z
" transform="scale(0.015625)"/>
       <path id="DejaVuSans-65" d="M 3597 1894 
L 3597 1613 
L 953 1613 
Q 991 1019 1311 708 
Q 1631 397 2203 397 
Q 2534 397 2845 478 
Q 3156 559 3463 722 
L 3463 178 
Q 3153 47 2828 -22 
Q 2503 -91 2169 -91 
Q 1331 -91 842 396 
Q 353 884 353 1716 
Q 353 2575 817 3079 
Q 1281 3584 2069 3584 
Q 2775 3584 3186 3129 
Q 3597 2675 3597 1894 
z
M 3022 2063 
Q 3016 2534 2758 2815 
Q 2500 3097 2075 3097 
Q 1594 3097 1305 2825 
Q 1016 2553 972 2059 
L 3022 2063 
z
" transform="scale(0.015625)"/>
      </defs>
      <use xlink:href="#DejaVuSans-64"/>
      <use xlink:href="#DejaVuSans-61" transform="translate(63.476562 0)"/>
      <use xlink:href="#DejaVuSans-74" transform="translate(124.755859 0)"/>
      <use xlink:href="#DejaVuSans-65" transform="translate(163.964844 0)"/>
     </g>
    </g>
   </g>
   <g id="matplotlib.axis_2">
    <g id="ytick_1">
     <g id="line2d_8">
      <defs>
       <path id="m7db33de5b5" d="M 0 0 
L -3.5 0 
" style="stroke: #000000; stroke-width: 0.8"/>
      </defs>
      <g>
       <use xlink:href="#m7db33de5b5" x="43.78125" y="254.371491" style="stroke: #000000; stroke-width: 0.8"/>
      </g>
     </g>
     <g id="text_9">
      <!-- 0.0 -->
      <g transform="translate(20.878125 258.170709) scale(0.1 -0.1)">
       <defs>
        <path id="DejaVuSans-2e" d="M 684 794 
L 1344 794 
L 1344 0 
L 684 0 
L 684 794 
z
" transform="scale(0.015625)"/>
       </defs>
       <use xlink:href="#DejaVuSans-30"/>
       <use xlink:href="#DejaVuSans-2e" transform="translate(63.623047 0)"/>
       <use xlink:href="#DejaVuSans-30" transform="translate(95.410156 0)"/>
      </g>
     </g>
    </g>
    <g id="ytick_2">
     <g id="line2d_9">
      <g>
       <use xlink:href="#m7db33de5b5" x="43.78125" y="210.231228" style="stroke: #000000; stroke-width: 0.8"/>
      </g>
     </g>
     <g id="text_10">
      <!-- 0.5 -->
      <g transform="translate(20.878125 214.030447) scale(0.1 -0.1)">
       <use xlink:href="#DejaVuSans-30"/>
       <use xlink:href="#DejaVuSans-2e" transform="translate(63.623047 0)"/>
       <use xlink:href="#DejaVuSans-35" transform="translate(95.410156 0)"/>
      </g>
     </g>
    </g>
    <g id="ytick_3">
     <g id="line2d_10">
      <g>
       <use xlink:href="#m7db33de5b5" x="43.78125" y="166.090966" style="stroke: #000000; stroke-width: 0.8"/>
      </g>
     </g>
     <g id="text_11">
      <!-- 1.0 -->
      <g transform="translate(20.878125 169.890185) scale(0.1 -0.1)">
       <use xlink:href="#DejaVuSans-31"/>
       <use xlink:href="#DejaVuSans-2e" transform="translate(63.623047 0)"/>
       <use xlink:href="#DejaVuSans-30" transform="translate(95.410156 0)"/>
      </g>
     </g>
    </g>
    <g id="ytick_4">
     <g id="line2d_11">
      <g>
       <use xlink:href="#m7db33de5b5" x="43.78125" y="121.950704" style="stroke: #000000; stroke-width: 0.8"/>
      </g>
     </g>
     <g id="text_12">
      <!-- 1.5 -->
      <g transform="translate(20.878125 125.749923) scale(0.1 -0.1)">
       <use xlink:href="#DejaVuSans-31"/>
       <use xlink:href="#DejaVuSans-2e" transform="translate(63.623047 0)"/>
       <use xlink:href="#DejaVuSans-35" transform="translate(95.410156 0)"/>
      </g>
     </g>
    </g>
    <g id="ytick_5">
     <g id="line2d_12">
      <g>
       <use xlink:href="#m7db33de5b5" x="43.78125" y="77.810442" style="stroke: #000000; stroke-width: 0.8"/>
      </g>
     </g>
     <g id="text_13">
      <!-- 2.0 -->
      <g transform="translate(20.878125 81.60966) scale(0.1 -0.1)">
       <use xlink:href="#DejaVuSans-32"/>
       <use xlink:href="#DejaVuSans-2e" transform="translate(63.623047 0)"/>
       <use xlink:href="#DejaVuSans-30" transform="translate(95.410156 0)"/>
      </g>
     </g>
    </g>
    <g id="ytick_6">
     <g id="line2d_13">
      <g>
       <use xlink:href="#m7db33de5b5" x="43.78125" y="33.670179" style="stroke: #000000; stroke-width: 0.8"/>
      </g>
     </g>
     <g id="text_14">
      <!-- 2.5 -->
      <g transform="translate(20.878125 37.469398) scale(0.1 -0.1)">
       <use xlink:href="#DejaVuSans-32"/>
       <use xlink:href="#DejaVuSans-2e" transform="translate(63.623047 0)"/>
       <use xlink:href="#DejaVuSans-35" transform="translate(95.410156 0)"/>
      </g>
     </g>
    </g>
    <g id="text_15">
     <!-- travelers -->
     <g transform="translate(14.798438 162.063531) rotate(-90) scale(0.1 -0.1)">
      <defs>
       <path id="DejaVuSans-72" d="M 2631 2963 
Q 2534 3019 2420 3045 
Q 2306 3072 2169 3072 
Q 1681 3072 1420 2755 
Q 1159 2438 1159 1844 
L 1159 0 
L 581 0 
L 581 3500 
L 1159 3500 
L 1159 2956 
Q 1341 3275 1631 3429 
Q 1922 3584 2338 3584 
Q 2397 3584 2469 3576 
Q 2541 3569 2628 3553 
L 2631 2963 
z
" transform="scale(0.015625)"/>
       <path id="DejaVuSans-76" d="M 191 3500 
L 800 3500 
L 1894 563 
L 2988 3500 
L 3597 3500 
L 2284 0 
L 1503 0 
L 191 3500 
z
" transform="scale(0.015625)"/>
       <path id="DejaVuSans-6c" d="M 603 4863 
L 1178 4863 
L 1178 0 
L 603 0 
L 603 4863 
z
" transform="scale(0.015625)"/>
       <path id="DejaVuSans-73" d="M 2834 3397 
L 2834 2853 
Q 2591 2978 2328 3040 
Q 2066 3103 1784 3103 
Q 1356 3103 1142 2972 
Q 928 2841 928 2578 
Q 928 2378 1081 2264 
Q 1234 2150 1697 2047 
L 1894 2003 
Q 2506 1872 2764 1633 
Q 3022 1394 3022 966 
Q 3022 478 2636 193 
Q 2250 -91 1575 -91 
Q 1294 -91 989 -36 
Q 684 19 347 128 
L 347 722 
Q 666 556 975 473 
Q 1284 391 1588 391 
Q 1994 391 2212 530 
Q 2431 669 2431 922 
Q 2431 1156 2273 1281 
Q 2116 1406 1581 1522 
L 1381 1569 
Q 847 1681 609 1914 
Q 372 2147 372 2553 
Q 372 3047 722 3315 
Q 1072 3584 1716 3584 
Q 2034 3584 2315 3537 
Q 2597 3491 2834 3397 
z
" transform="scale(0.015625)"/>
      </defs>
      <use xlink:href="#DejaVuSans-74"/>
      <use xlink:href="#DejaVuSans-72" transform="translate(39.208984 0)"/>
      <use xlink:href="#DejaVuSans-61" transform="translate(80.322266 0)"/>
      <use xlink:href="#DejaVuSans-76" transform="translate(141.601562 0)"/>
      <use xlink:href="#DejaVuSans-65" transform="translate(200.78125 0)"/>
      <use xlink:href="#DejaVuSans-6c" transform="translate(262.304688 0)"/>
      <use xlink:href="#DejaVuSans-65" transform="translate(290.087891 0)"/>
      <use xlink:href="#DejaVuSans-72" transform="translate(351.611328 0)"/>
      <use xlink:href="#DejaVuSans-73" transform="translate(392.724609 0)"/>
     </g>
    </g>
    <g id="text_16">
     <!-- 1e6 -->
     <g transform="translate(43.78125 19.318125) scale(0.1 -0.1)">
      <defs>
       <path id="DejaVuSans-36" d="M 2113 2584 
Q 1688 2584 1439 2293 
Q 1191 2003 1191 1497 
Q 1191 994 1439 701 
Q 1688 409 2113 409 
Q 2538 409 2786 701 
Q 3034 994 3034 1497 
Q 3034 2003 2786 2293 
Q 2538 2584 2113 2584 
z
M 3366 4563 
L 3366 3988 
Q 3128 4100 2886 4159 
Q 2644 4219 2406 4219 
Q 1781 4219 1451 3797 
Q 1122 3375 1075 2522 
Q 1259 2794 1537 2939 
Q 1816 3084 2150 3084 
Q 2853 3084 3261 2657 
Q 3669 2231 3669 1497 
Q 3669 778 3244 343 
Q 2819 -91 2113 -91 
Q 1303 -91 875 529 
Q 447 1150 447 2328 
Q 447 3434 972 4092 
Q 1497 4750 2381 4750 
Q 2619 4750 2861 4703 
Q 3103 4656 3366 4563 
z
" transform="scale(0.015625)"/>
      </defs>
      <use xlink:href="#DejaVuSans-31"/>
      <use xlink:href="#DejaVuSans-65" transform="translate(63.623047 0)"/>
      <use xlink:href="#DejaVuSans-36" transform="translate(125.146484 0)"/>
     </g>
    </g>
   </g>
   <g id="line2d_14">
    <path d="M 60.013977 50.290577 
L 60.903442 62.038596 
L 61.792906 40.532048 
L 62.682371 59.223683 
L 63.571835 94.894489 
L 64.4613 94.138807 
L 65.350764 74.767235 
L 66.240229 71.406308 
L 67.129693 105.356261 
L 68.019158 61.590308 
L 68.908622 78.476695 
L 69.798087 105.071026 
L 70.687551 88.688191 
L 71.577016 56.388643 
L 72.46648 47.170479 
L 73.355945 97.065042 
L 74.245409 77.787489 
L 75.134874 51.448465 
L 76.024338 89.246389 
L 76.913803 95.339069 
L 77.803267 68.946989 
L 78.692732 65.004204 
L 79.582196 109.132725 
L 80.471661 65.752735 
L 81.361125 77.403557 
L 82.25059 109.288187 
L 83.140054 97.481903 
L 84.029519 70.265282 
L 84.918983 63.769689 
L 85.808448 107.924164 
L 86.697913 82.388846 
L 87.587377 72.97929 
L 88.476842 106.254603 
L 89.366306 91.593062 
L 90.255771 62.991938 
L 91.145235 53.837777 
L 92.0347 98.093687 
L 92.924164 57.962684 
L 93.813629 63.248481 
L 94.703093 94.22647 
L 95.592558 74.422677 
L 96.482022 41.157692 
L 97.371487 33.000307 
L 98.260951 80.260403 
L 99.150416 60.272898 
L 100.03988 34.118468 
L 100.929345 61.010658 
L 101.818809 66.346156 
L 102.708274 46.160903 
L 103.597738 39.894927 
L 104.487203 82.088957 
L 105.376667 44.23215 
L 106.266132 54.205818 
L 107.155596 84.890275 
L 108.045061 71.140495 
L 108.934525 45.612151 
L 109.82399 38.821966 
L 110.713454 82.251305 
L 111.602919 46.634174 
L 113.381848 69.896887 
L 114.271312 101.081806 
L 115.160777 88.633546 
L 116.050241 66.332649 
L 116.939706 60.285257 
L 117.82917 91.510608 
L 118.718635 67.22852 
L 119.608099 85.811924 
L 120.497564 111.602461 
L 122.276493 96.485657 
L 123.165957 103.025831 
L 124.055422 123.226093 
L 124.944886 120.256424 
L 125.834351 143.330216 
L 126.723815 170.178443 
L 128.502744 199.559614 
L 129.392209 202.006397 
L 130.281673 205.98211 
L 131.171138 214.24658 
L 132.060602 225.112588 
L 132.950067 229.739635 
L 134.728996 236.374799 
L 135.61846 236.746814 
L 136.507925 238.125491 
L 137.397389 238.48082 
L 138.286854 240.769227 
L 139.176318 241.451812 
L 140.955248 243.422852 
L 141.844712 242.915945 
L 142.734177 243.927728 
L 143.623641 243.598706 
L 144.513106 244.809827 
L 145.40257 245.796803 
L 146.292035 245.990932 
L 147.181499 245.182371 
L 148.070964 244.750944 
L 148.960428 246.104461 
L 149.849893 246.38122 
L 150.739357 245.350633 
L 151.628822 246.643943 
L 153.407751 245.977337 
L 154.297215 244.979767 
L 155.18668 245.787446 
L 156.076144 245.068312 
L 157.855073 246.173849 
L 158.744538 245.634544 
L 160.523467 243.472024 
L 161.412931 244.26699 
L 162.302396 242.994338 
L 164.081325 244.580033 
L 164.970789 243.81058 
L 165.860254 240.714935 
L 166.749718 239.225819 
L 167.639183 242.518859 
L 168.528647 239.341378 
L 169.418112 239.920675 
L 170.307576 242.841966 
L 171.197041 241.97611 
L 172.086505 237.522005 
L 172.97597 235.351981 
L 173.865434 239.400879 
L 174.754899 236.643437 
L 175.644363 235.334237 
L 176.533828 239.963668 
L 177.423292 238.775235 
L 178.312757 233.631924 
L 179.202221 232.260132 
L 180.091686 232.260132 
L 180.98115 237.303334 
L 181.870615 231.965276 
L 182.760079 232.815505 
L 183.649544 237.556081 
L 184.539008 234.034571 
L 185.428473 226.258646 
L 186.317937 223.590455 
L 187.207402 232.019745 
L 188.096866 230.760776 
L 188.986331 224.288225 
L 189.875795 230.991012 
L 190.76526 231.315266 
L 191.654724 225.964937 
L 192.544189 225.492018 
L 193.433653 230.635771 
L 194.323118 223.213144 
L 195.212583 223.185424 
L 196.102047 230.735086 
L 196.991512 227.495721 
L 197.880976 219.775942 
L 198.770441 217.322362 
L 199.659905 223.207053 
L 200.54937 215.417268 
L 201.438834 216.374317 
L 202.328299 224.49895 
L 203.217763 220.209664 
L 204.107228 210.036217 
L 204.996692 208.527061 
L 205.886157 215.782396 
L 206.775621 206.342824 
L 207.665086 207.183078 
L 208.55455 217.476941 
L 209.444015 215.366595 
L 210.333479 203.476532 
L 211.222944 202.470664 
L 212.112408 209.601877 
L 213.001873 202.245725 
L 213.891337 200.737541 
L 214.780802 212.754197 
L 215.670266 210.687992 
L 216.559731 199.317637 
L 217.449195 198.491331 
L 218.33866 206.142957 
L 219.228124 198.418411 
L 220.117589 199.175417 
L 221.007053 210.226461 
L 222.785982 186.857988 
L 223.675447 190.898853 
L 224.564911 213.173707 
L 225.454376 189.739288 
L 226.34384 187.670699 
L 227.233305 197.716493 
L 228.122769 198.534235 
L 229.012234 191.722952 
L 229.901698 191.593091 
L 230.791163 196.434395 
L 231.680627 187.759862 
L 232.570092 192.753009 
L 233.459556 206.676348 
L 234.349021 202.349102 
L 235.238485 192.030962 
L 236.12795 190.776143 
L 237.017414 197.284536 
L 237.906879 188.388684 
L 238.796343 192.987394 
L 239.685808 207.545647 
L 240.575272 203.967637 
L 241.464737 192.150053 
L 242.354201 190.388415 
L 243.243666 197.075047 
L 244.13313 188.054719 
L 245.022595 192.571327 
L 245.912059 206.986389 
L 246.801524 203.769094 
L 247.690988 190.958707 
L 248.580453 186.632079 
L 249.469917 191.777686 
L 250.359382 183.759342 
L 251.248847 189.287998 
L 252.138311 206.382109 
L 253.027776 201.779339 
L 253.91724 188.726181 
L 254.806705 187.053442 
L 255.696169 194.057177 
L 256.585634 180.940721 
L 257.475098 187.114002 
L 258.364563 204.9856 
L 259.254027 202.219859 
L 260.143492 187.117533 
L 261.032956 185.182159 
L 261.922421 193.467198 
L 262.811885 178.1899 
L 263.70135 186.102484 
L 264.590814 204.409481 
L 265.480279 202.575718 
L 266.369743 186.185379 
L 267.259208 186.883855 
L 268.148672 199.123596 
L 269.038137 180.056415 
L 269.927601 190.210265 
L 270.817066 208.184356 
L 271.70653 206.696211 
L 272.595995 190.715936 
L 273.485459 189.143395 
L 274.374924 202.132903 
L 275.264388 183.067752 
L 276.153853 191.588324 
L 277.043317 208.812737 
L 277.932782 203.333783 
L 278.822246 176.887851 
L 279.711711 168.85653 
L 280.601175 195.696723 
L 281.49064 193.490593 
L 282.380104 171.80201 
L 283.269569 192.21538 
L 284.159033 199.909205 
L 285.048498 187.715192 
L 285.937962 189.807264 
L 286.827427 200.193468 
L 287.716891 182.877508 
L 288.606356 189.965728 
L 289.49582 208.255245 
L 290.385285 203.358854 
L 291.274749 185.093702 
L 292.164214 182.668813 
L 293.053678 197.997755 
L 293.943143 179.512431 
L 294.832607 186.401137 
L 295.722072 205.840067 
L 296.611536 200.63284 
L 297.501001 181.423881 
L 298.390465 181.422733 
L 299.27993 196.163727 
L 300.169394 177.299238 
L 301.058859 183.950205 
L 301.948323 204.167416 
L 302.837788 198.397577 
L 303.727252 178.811483 
L 304.616717 178.698661 
L 305.506182 194.547222 
L 306.395646 174.838595 
L 307.285111 182.260604 
L 308.174575 202.218358 
L 309.06404 195.354283 
L 309.953504 171.660143 
L 310.842969 168.86783 
L 311.732433 186.40714 
L 312.621898 167.482797 
L 313.511362 169.759905 
L 314.400827 194.261811 
L 315.290291 190.991371 
L 316.179756 170.502874 
L 317.06922 168.470479 
L 317.958685 184.740845 
L 318.848149 163.309688 
L 319.737614 173.062391 
L 320.627078 195.887056 
L 321.516543 193.091565 
L 322.406007 171.883404 
L 323.295472 169.76017 
L 324.184936 187.694358 
L 325.074401 167.525966 
L 325.963865 175.030693 
L 326.85333 197.12007 
L 327.742794 195.492177 
L 328.632259 177.246446 
L 329.521723 175.562407 
L 330.411188 199.772105 
L 331.300652 171.732798 
L 332.190117 179.673984 
L 333.079581 203.537004 
L 333.969046 198.178024 
L 334.85851 177.823006 
L 335.747975 175.352388 
L 336.637439 193.462254 
L 337.526904 168.472775 
L 338.416368 180.516004 
L 339.305833 201.714365 
L 340.195297 194.814536 
L 341.084762 177.860614 
L 341.974226 176.545234 
L 342.863691 192.808184 
L 343.753155 168.006918 
L 344.64262 176.405927 
L 345.532084 200.388215 
L 346.421549 192.298364 
L 347.311013 174.271746 
L 348.200478 164.339834 
L 349.089942 167.470879 
L 349.979407 161.859327 
L 350.868871 173.386998 
L 351.758336 173.851707 
L 352.6478 159.825962 
L 353.537265 204.854768 
L 354.426729 181.946237 
L 355.316194 169.213448 
L 356.205658 150.54556 
L 357.984587 185.487698 
L 358.874052 198.546771 
L 359.763517 189.21605 
L 360.652981 187.812301 
L 361.542446 198.80508 
L 362.43191 180.468597 
L 363.321375 192.262081 
L 364.210839 210.09766 
L 365.100304 204.548434 
L 365.989768 187.780873 
L 366.879233 184.851549 
L 367.768697 195.896237 
L 368.658162 178.007601 
L 369.547626 187.944722 
L 370.437091 205.638522 
L 371.326555 197.698395 
L 373.105484 160.198506 
L 373.994949 159.596786 
L 374.884413 160.386367 
L 375.773878 170.082835 
L 376.663342 166.782467 
L 377.552807 149.218527 
L 378.442271 179.640261 
L 379.331736 199.949284 
L 380.2212 154.722818 
L 381.110665 140.966417 
L 382.000129 156.225529 
L 382.889594 164.383003 
L 383.779058 151.639797 
L 384.668523 177.17847 
L 384.668523 177.17847 
" clip-path="url(#p0c735aba0c)" style="fill: none; stroke: #1f77b4; stroke-opacity: 0.8; stroke-width: 1.5; stroke-linecap: square"/>
   </g>
   <g id="line2d_15">
    <path d="M 60.013977 50.290577 
L 60.903442 56.164587 
L 61.792906 50.953741 
L 62.682371 53.021226 
L 63.571835 61.395879 
L 64.4613 66.853034 
L 65.350764 67.983634 
L 66.240229 71.000167 
L 67.129693 77.188404 
L 68.908622 82.947157 
L 69.798087 84.400949 
L 70.687551 83.622289 
L 71.577016 80.996776 
L 72.46648 77.534515 
L 73.355945 76.350055 
L 74.245409 78.663938 
L 75.134874 74.802762 
L 76.024338 72.5421 
L 76.913803 73.492225 
L 77.803267 75.286274 
L 78.692732 77.83395 
L 79.582196 79.557904 
L 80.471661 77.838654 
L 81.361125 81.546524 
L 82.25059 84.409638 
L 83.140054 84.715757 
L 84.029519 84.904084 
L 85.808448 84.555074 
L 86.697913 86.931661 
L 87.587377 86.299623 
L 88.476842 85.866254 
L 89.366306 85.024991 
L 90.255771 83.985942 
L 92.0347 81.162743 
L 92.924164 77.673292 
L 93.813629 76.283176 
L 94.703093 74.564871 
L 95.592558 72.111959 
L 97.371487 66.016 
L 98.260951 63.468388 
L 99.150416 63.798418 
L 100.03988 59.636988 
L 100.929345 54.891872 
L 101.818809 53.738083 
L 102.708274 54.452827 
L 103.597738 55.437773 
L 104.487203 55.698995 
L 105.376667 53.40746 
L 106.266132 56.277081 
L 107.155596 59.688455 
L 108.045061 60.373361 
L 110.713454 60.16488 
L 111.602919 60.508026 
L 113.381848 59.059496 
L 114.271312 64.049715 
L 115.160777 71.219947 
L 116.050241 75.805061 
L 116.939706 72.144053 
L 117.82917 79.623459 
L 118.718635 77.852753 
L 119.608099 80.12633 
L 120.497564 81.629281 
L 121.387028 83.832699 
L 122.276493 88.140272 
L 123.165957 94.246068 
L 124.055422 98.776852 
L 125.834351 114.569166 
L 126.723815 122.937163 
L 127.61328 134.578274 
L 129.392209 163.443206 
L 130.281673 175.265494 
L 131.171138 188.69266 
L 132.060602 200.375855 
L 132.950067 208.884597 
L 133.839531 215.699816 
L 135.61846 225.922045 
L 136.507925 230.513956 
L 137.397389 233.975991 
L 138.286854 236.212653 
L 139.176318 237.885822 
L 140.065783 239.187467 
L 141.844712 241.075636 
L 143.623641 242.635654 
L 146.292035 244.351828 
L 148.960428 245.176292 
L 149.849893 245.573794 
L 154.297215 245.970628 
L 155.18668 245.92534 
L 156.076144 245.737781 
L 157.855073 245.706442 
L 159.634002 245.39461 
L 162.302396 244.665728 
L 164.970789 243.918812 
L 166.749718 242.769059 
L 167.639183 242.519326 
L 169.418112 241.444611 
L 171.197041 240.934249 
L 174.754899 239.093865 
L 175.644363 238.438659 
L 177.423292 237.570206 
L 179.202221 236.572787 
L 180.091686 235.552681 
L 180.98115 235.646952 
L 181.870615 235.165672 
L 182.760079 234.144506 
L 183.649544 233.970341 
L 184.539008 234.027862 
L 185.428473 233.170506 
L 186.317937 231.931981 
L 187.207402 231.177183 
L 188.096866 231.005111 
L 188.986331 229.786928 
L 189.875795 228.849061 
L 190.76526 228.460589 
L 191.654724 228.418631 
L 192.544189 228.690282 
L 193.433653 228.492572 
L 194.323118 227.414339 
L 195.212583 227.256796 
L 196.102047 227.220235 
L 196.991512 226.674586 
L 197.880976 225.790444 
L 200.54937 222.448408 
L 203.217763 219.543651 
L 204.996692 216.89579 
L 205.886157 215.835125 
L 207.665086 213.225742 
L 208.55455 212.222597 
L 209.444015 211.53073 
L 212.112408 208.845502 
L 213.001873 208.260202 
L 213.891337 207.339411 
L 216.559731 205.402233 
L 219.228124 203.792867 
L 220.117589 203.569706 
L 221.007053 203.208601 
L 222.785982 199.767842 
L 223.675447 198.683203 
L 224.564911 199.687595 
L 225.454376 198.447721 
L 227.233305 195.017051 
L 228.122769 194.941609 
L 229.012234 195.636604 
L 229.901698 195.735781 
L 230.791163 193.34445 
L 231.680627 193.061675 
L 232.570092 193.78772 
L 233.459556 195.067699 
L 234.349021 195.61268 
L 235.238485 195.656681 
L 236.12795 195.539974 
L 237.906879 195.751255 
L 239.685808 195.908924 
L 240.575272 196.140143 
L 242.354201 196.101766 
L 246.801524 195.856435 
L 247.690988 195.686243 
L 248.580453 195.149623 
L 250.359382 193.779232 
L 251.248847 193.310185 
L 252.138311 193.223859 
L 253.91724 192.620676 
L 254.806705 192.680871 
L 255.696169 193.006513 
L 257.475098 192.293282 
L 258.364563 192.09378 
L 259.254027 192.156712 
L 263.70135 191.037819 
L 264.590814 190.955516 
L 265.480279 191.006353 
L 266.369743 190.873188 
L 267.259208 191.116288 
L 268.148672 191.924345 
L 269.038137 192.19099 
L 272.595995 194.552948 
L 274.374924 195.30564 
L 275.264388 195.735831 
L 277.043317 196.022465 
L 277.932782 195.542118 
L 278.822246 193.566678 
L 279.711711 190.668554 
L 280.601175 189.7491 
L 281.49064 191.238077 
L 282.380104 188.411461 
L 283.269569 186.04041 
L 284.159033 185.551184 
L 285.048498 187.097948 
L 285.937962 190.09091 
L 286.827427 190.733302 
L 287.716891 189.217147 
L 289.49582 194.103373 
L 290.385285 194.59618 
L 291.274749 194.221681 
L 292.164214 193.201903 
L 293.053678 192.888229 
L 295.722072 191.553251 
L 296.611536 191.163821 
L 297.501001 190.63956 
L 299.27993 190.199545 
L 309.06404 186.675601 
L 309.953504 185.653981 
L 310.842969 184.249576 
L 312.621898 182.035879 
L 313.511362 180.250065 
L 314.400827 179.113415 
L 315.290291 178.490142 
L 317.958685 178.030012 
L 318.848149 177.433853 
L 319.737614 177.905637 
L 323.295472 178.819303 
L 324.184936 179.241233 
L 325.074401 179.843558 
L 327.742794 180.643834 
L 329.521723 182.238874 
L 330.411188 183.964266 
L 332.190117 185.22857 
L 333.079581 186.145275 
L 333.969046 186.528967 
L 334.85851 186.611333 
L 335.747975 186.58133 
L 336.637439 185.679923 
L 337.526904 185.214205 
L 338.416368 185.334494 
L 339.305833 185.074116 
L 340.195297 184.593618 
L 341.084762 184.598991 
L 341.974226 184.769397 
L 343.753155 184.609408 
L 344.64262 184.022254 
L 345.532084 183.832804 
L 346.421549 183.473351 
L 347.311013 182.960656 
L 348.200478 181.217027 
L 349.089942 177.597412 
L 349.979407 176.719185 
L 350.868871 176.287909 
L 351.758336 172.496979 
L 352.6478 167.858065 
L 353.537265 172.227068 
L 354.426729 174.742268 
L 355.316194 174.991207 
L 356.205658 173.374954 
L 357.095123 172.560781 
L 357.984587 174.223065 
L 358.874052 179.75461 
L 359.763517 177.520507 
L 360.652981 178.358516 
L 362.43191 186.860612 
L 364.210839 193.886934 
L 365.100304 194.744315 
L 365.989768 194.539289 
L 369.547626 192.732439 
L 370.437091 192.09542 
L 371.326555 191.116843 
L 372.21602 189.948677 
L 373.105484 186.426814 
L 373.994949 181.241178 
L 375.773878 176.172161 
L 376.663342 170.621296 
L 377.552807 163.6956 
L 378.442271 163.700821 
L 379.331736 169.379504 
L 380.2212 168.683223 
L 381.110665 165.908944 
L 382.000129 163.929329 
L 382.889594 163.586549 
L 383.779058 163.932444 
L 384.668523 163.58076 
L 384.668523 163.58076 
" clip-path="url(#p0c735aba0c)" style="fill: none; stroke: #ff7f0e; stroke-opacity: 0.8; stroke-width: 1.5; stroke-linecap: square"/>
   </g>
   <g id="line2d_16">
    <path d="M 60.013977 50.290577 
L 60.903442 56.164587 
L 61.792906 50.953741 
L 62.682371 53.021226 
L 63.571835 61.395879 
L 64.4613 66.853034 
L 65.350764 67.983634 
L 66.240229 68.411468 
L 67.129693 72.516445 
L 68.019158 71.423831 
L 68.908622 72.065001 
L 69.798087 74.815503 
L 70.687551 75.882633 
L 71.577016 74.490205 
L 72.46648 72.66889 
L 73.355945 74.193649 
L 74.245409 74.405052 
L 75.134874 73.129686 
L 76.024338 73.977933 
L 76.913803 75.04599 
L 77.803267 74.755561 
L 78.692732 74.312318 
L 79.582196 75.826249 
L 80.471661 75.406519 
L 81.361125 75.4864 
L 82.25059 76.786469 
L 83.140054 77.552967 
L 84.029519 77.292692 
L 84.918983 76.826382 
L 85.808448 77.862974 
L 86.697913 78.00897 
L 87.587377 77.851793 
L 88.476842 78.712484 
L 89.366306 79.091325 
L 90.255771 78.631342 
L 91.145235 77.942632 
L 92.0347 78.487255 
L 92.924164 77.947135 
L 93.813629 77.570246 
L 94.703093 77.986652 
L 95.592558 77.899726 
L 97.371487 76.001087 
L 98.260951 76.09789 
L 99.150416 75.746223 
L 100.03988 74.841272 
L 100.929345 74.547004 
L 101.818809 74.376153 
L 103.597738 73.122223 
L 104.487203 73.298042 
L 105.376667 72.739082 
L 106.266132 72.389398 
L 107.155596 72.620896 
L 108.045061 72.593979 
L 109.82399 71.528122 
L 110.713454 71.713005 
L 111.602919 71.28794 
L 113.381848 71.264756 
L 114.271312 71.75356 
L 115.160777 72.025818 
L 116.939706 71.753416 
L 117.82917 72.057372 
L 118.718635 71.984208 
L 119.608099 72.190592 
L 121.387028 73.223617 
L 123.165957 73.971001 
L 124.944886 75.279775 
L 125.834351 76.199376 
L 127.61328 78.874704 
L 132.060602 86.930676 
L 137.397389 97.173611 
L 140.955248 103.539685 
L 144.513106 109.445932 
L 148.070964 114.940248 
L 151.628822 120.03461 
L 155.18668 124.7352 
L 158.744538 129.091392 
L 162.302396 133.081694 
L 165.860254 136.783959 
L 171.197041 141.784927 
L 175.644363 145.441296 
L 178.312757 147.516837 
L 184.539008 151.842388 
L 191.654724 155.96705 
L 197.880976 159.120364 
L 204.107228 161.671125 
L 212.112408 164.192692 
L 221.896518 166.561595 
L 223.675447 166.804169 
L 224.564911 167.054815 
L 232.570092 168.242602 
L 235.238485 168.73158 
L 239.685808 169.391602 
L 241.464737 169.672654 
L 245.912059 170.278934 
L 247.690988 170.535664 
L 252.138311 171.02252 
L 253.91724 171.244816 
L 258.364563 171.683949 
L 260.143492 171.888258 
L 264.590814 172.270475 
L 266.369743 172.46108 
L 269.927601 172.742562 
L 272.595995 173.108122 
L 276.153853 173.41059 
L 277.932782 173.677224 
L 282.380104 173.830615 
L 299.27993 175.126798 
L 301.058859 175.167373 
L 302.837788 175.358692 
L 307.285111 175.475107 
L 309.06404 175.641615 
L 314.400827 175.657664 
L 316.179756 175.693007 
L 319.737614 175.647841 
L 322.406007 175.762819 
L 325.963865 175.752651 
L 328.632259 175.893713 
L 332.190117 175.969421 
L 334.85851 176.136507 
L 338.416368 176.178863 
L 341.084762 176.323967 
L 345.532084 176.425321 
L 347.311013 176.467797 
L 352.6478 176.291286 
L 354.426729 176.394665 
L 358.874052 176.363438 
L 370.437091 176.966891 
L 372.21602 177.033467 
L 378.442271 176.772773 
L 379.331736 176.837332 
L 384.668523 176.519776 
L 384.668523 176.519776 
" clip-path="url(#p0c735aba0c)" style="fill: none; stroke: #2ca02c; stroke-opacity: 0.8; stroke-width: 1.5; stroke-linecap: square"/>
   </g>
   <g id="patch_3">
    <path d="M 43.78125 257.326125 
L 43.78125 22.318125 
" style="fill: none; stroke: #000000; stroke-width: 0.8; stroke-linejoin: miter; stroke-linecap: square"/>
   </g>
   <g id="patch_4">
    <path d="M 400.90125 257.326125 
L 400.90125 22.318125 
" style="fill: none; stroke: #000000; stroke-width: 0.8; stroke-linejoin: miter; stroke-linecap: square"/>
   </g>
   <g id="patch_5">
    <path d="M 43.78125 257.326125 
L 400.90125 257.326125 
" style="fill: none; stroke: #000000; stroke-width: 0.8; stroke-linejoin: miter; stroke-linecap: square"/>
   </g>
   <g id="patch_6">
    <path d="M 43.78125 22.318125 
L 400.90125 22.318125 
" style="fill: none; stroke: #000000; stroke-width: 0.8; stroke-linejoin: miter; stroke-linecap: square"/>
   </g>
   <g id="text_17">
    <!-- 2020 TSA Traveler Throughput -->
    <g transform="translate(130.820625 16.318125) scale(0.12 -0.12)">
     <defs>
      <path id="DejaVuSans-20" transform="scale(0.015625)"/>
      <path id="DejaVuSans-54" d="M -19 4666 
L 3928 4666 
L 3928 4134 
L 2272 4134 
L 2272 0 
L 1638 0 
L 1638 4134 
L -19 4134 
L -19 4666 
z
" transform="scale(0.015625)"/>
      <path id="DejaVuSans-53" d="M 3425 4513 
L 3425 3897 
Q 3066 4069 2747 4153 
Q 2428 4238 2131 4238 
Q 1616 4238 1336 4038 
Q 1056 3838 1056 3469 
Q 1056 3159 1242 3001 
Q 1428 2844 1947 2747 
L 2328 2669 
Q 3034 2534 3370 2195 
Q 3706 1856 3706 1288 
Q 3706 609 3251 259 
Q 2797 -91 1919 -91 
Q 1588 -91 1214 -16 
Q 841 59 441 206 
L 441 856 
Q 825 641 1194 531 
Q 1563 422 1919 422 
Q 2459 422 2753 634 
Q 3047 847 3047 1241 
Q 3047 1584 2836 1778 
Q 2625 1972 2144 2069 
L 1759 2144 
Q 1053 2284 737 2584 
Q 422 2884 422 3419 
Q 422 4038 858 4394 
Q 1294 4750 2059 4750 
Q 2388 4750 2728 4690 
Q 3069 4631 3425 4513 
z
" transform="scale(0.015625)"/>
      <path id="DejaVuSans-41" d="M 2188 4044 
L 1331 1722 
L 3047 1722 
L 2188 4044 
z
M 1831 4666 
L 2547 4666 
L 4325 0 
L 3669 0 
L 3244 1197 
L 1141 1197 
L 716 0 
L 50 0 
L 1831 4666 
z
" transform="scale(0.015625)"/>
      <path id="DejaVuSans-68" d="M 3513 2113 
L 3513 0 
L 2938 0 
L 2938 2094 
Q 2938 2591 2744 2837 
Q 2550 3084 2163 3084 
Q 1697 3084 1428 2787 
Q 1159 2491 1159 1978 
L 1159 0 
L 581 0 
L 581 4863 
L 1159 4863 
L 1159 2956 
Q 1366 3272 1645 3428 
Q 1925 3584 2291 3584 
Q 2894 3584 3203 3211 
Q 3513 2838 3513 2113 
z
" transform="scale(0.015625)"/>
      <path id="DejaVuSans-6f" d="M 1959 3097 
Q 1497 3097 1228 2736 
Q 959 2375 959 1747 
Q 959 1119 1226 758 
Q 1494 397 1959 397 
Q 2419 397 2687 759 
Q 2956 1122 2956 1747 
Q 2956 2369 2687 2733 
Q 2419 3097 1959 3097 
z
M 1959 3584 
Q 2709 3584 3137 3096 
Q 3566 2609 3566 1747 
Q 3566 888 3137 398 
Q 2709 -91 1959 -91 
Q 1206 -91 779 398 
Q 353 888 353 1747 
Q 353 2609 779 3096 
Q 1206 3584 1959 3584 
z
" transform="scale(0.015625)"/>
      <path id="DejaVuSans-75" d="M 544 1381 
L 544 3500 
L 1119 3500 
L 1119 1403 
Q 1119 906 1312 657 
Q 1506 409 1894 409 
Q 2359 409 2629 706 
Q 2900 1003 2900 1516 
L 2900 3500 
L 3475 3500 
L 3475 0 
L 2900 0 
L 2900 538 
Q 2691 219 2414 64 
Q 2138 -91 1772 -91 
Q 1169 -91 856 284 
Q 544 659 544 1381 
z
M 1991 3584 
L 1991 3584 
z
" transform="scale(0.015625)"/>
      <path id="DejaVuSans-67" d="M 2906 1791 
Q 2906 2416 2648 2759 
Q 2391 3103 1925 3103 
Q 1463 3103 1205 2759 
Q 947 2416 947 1791 
Q 947 1169 1205 825 
Q 1463 481 1925 481 
Q 2391 481 2648 825 
Q 2906 1169 2906 1791 
z
M 3481 434 
Q 3481 -459 3084 -895 
Q 2688 -1331 1869 -1331 
Q 1566 -1331 1297 -1286 
Q 1028 -1241 775 -1147 
L 775 -588 
Q 1028 -725 1275 -790 
Q 1522 -856 1778 -856 
Q 2344 -856 2625 -561 
Q 2906 -266 2906 331 
L 2906 616 
Q 2728 306 2450 153 
Q 2172 0 1784 0 
Q 1141 0 747 490 
Q 353 981 353 1791 
Q 353 2603 747 3093 
Q 1141 3584 1784 3584 
Q 2172 3584 2450 3431 
Q 2728 3278 2906 2969 
L 2906 3500 
L 3481 3500 
L 3481 434 
z
" transform="scale(0.015625)"/>
      <path id="DejaVuSans-70" d="M 1159 525 
L 1159 -1331 
L 581 -1331 
L 581 3500 
L 1159 3500 
L 1159 2969 
Q 1341 3281 1617 3432 
Q 1894 3584 2278 3584 
Q 2916 3584 3314 3078 
Q 3713 2572 3713 1747 
Q 3713 922 3314 415 
Q 2916 -91 2278 -91 
Q 1894 -91 1617 61 
Q 1341 213 1159 525 
z
M 3116 1747 
Q 3116 2381 2855 2742 
Q 2594 3103 2138 3103 
Q 1681 3103 1420 2742 
Q 1159 2381 1159 1747 
Q 1159 1113 1420 752 
Q 1681 391 2138 391 
Q 2594 391 2855 752 
Q 3116 1113 3116 1747 
z
" transform="scale(0.015625)"/>
     </defs>
     <use xlink:href="#DejaVuSans-32"/>
     <use xlink:href="#DejaVuSans-30" transform="translate(63.623047 0)"/>
     <use xlink:href="#DejaVuSans-32" transform="translate(127.246094 0)"/>
     <use xlink:href="#DejaVuSans-30" transform="translate(190.869141 0)"/>
     <use xlink:href="#DejaVuSans-20" transform="translate(254.492188 0)"/>
     <use xlink:href="#DejaVuSans-54" transform="translate(286.279297 0)"/>
     <use xlink:href="#DejaVuSans-53" transform="translate(347.363281 0)"/>
     <use xlink:href="#DejaVuSans-41" transform="translate(412.714844 0)"/>
     <use xlink:href="#DejaVuSans-20" transform="translate(481.123047 0)"/>
     <use xlink:href="#DejaVuSans-54" transform="translate(512.910156 0)"/>
     <use xlink:href="#DejaVuSans-72" transform="translate(559.244141 0)"/>
     <use xlink:href="#DejaVuSans-61" transform="translate(600.357422 0)"/>
     <use xlink:href="#DejaVuSans-76" transform="translate(661.636719 0)"/>
     <use xlink:href="#DejaVuSans-65" transform="translate(720.816406 0)"/>
     <use xlink:href="#DejaVuSans-6c" transform="translate(782.339844 0)"/>
     <use xlink:href="#DejaVuSans-65" transform="translate(810.123047 0)"/>
     <use xlink:href="#DejaVuSans-72" transform="translate(871.646484 0)"/>
     <use xlink:href="#DejaVuSans-20" transform="translate(912.759766 0)"/>
     <use xlink:href="#DejaVuSans-54" transform="translate(944.546875 0)"/>
     <use xlink:href="#DejaVuSans-68" transform="translate(1005.630859 0)"/>
     <use xlink:href="#DejaVuSans-72" transform="translate(1069.009766 0)"/>
     <use xlink:href="#DejaVuSans-6f" transform="translate(1107.873047 0)"/>
     <use xlink:href="#DejaVuSans-75" transform="translate(1169.054688 0)"/>
     <use xlink:href="#DejaVuSans-67" transform="translate(1232.433594 0)"/>
     <use xlink:href="#DejaVuSans-68" transform="translate(1295.910156 0)"/>
     <use xlink:href="#DejaVuSans-70" transform="translate(1359.289062 0)"/>
     <use xlink:href="#DejaVuSans-75" transform="translate(1422.765625 0)"/>
     <use xlink:href="#DejaVuSans-74" transform="translate(1486.144531 0)"/>
    </g>
   </g>
   <g id="legend_1">
    <g id="patch_7">
     <path d="M 310.448125 74.3525 
L 393.90125 74.3525 
Q 395.90125 74.3525 395.90125 72.3525 
L 395.90125 29.318125 
Q 395.90125 27.318125 393.90125 27.318125 
L 310.448125 27.318125 
Q 308.448125 27.318125 308.448125 29.318125 
L 308.448125 72.3525 
Q 308.448125 74.3525 310.448125 74.3525 
z
" style="fill: #ffffff; opacity: 0.8; stroke: #cccccc; stroke-linejoin: miter"/>
    </g>
    <g id="line2d_17">
     <path d="M 312.448125 35.416562 
L 322.448125 35.416562 
L 332.448125 35.416562 
" style="fill: none; stroke: #1f77b4; stroke-opacity: 0.8; stroke-width: 1.5; stroke-linecap: square"/>
    </g>
    <g id="text_18">
     <!-- travelers -->
     <g transform="translate(340.448125 38.916562) scale(0.1 -0.1)">
      <use xlink:href="#DejaVuSans-74"/>
      <use xlink:href="#DejaVuSans-72" transform="translate(39.208984 0)"/>
      <use xlink:href="#DejaVuSans-61" transform="translate(80.322266 0)"/>
      <use xlink:href="#DejaVuSans-76" transform="translate(141.601562 0)"/>
      <use xlink:href="#DejaVuSans-65" transform="translate(200.78125 0)"/>
      <use xlink:href="#DejaVuSans-6c" transform="translate(262.304688 0)"/>
      <use xlink:href="#DejaVuSans-65" transform="translate(290.087891 0)"/>
      <use xlink:href="#DejaVuSans-72" transform="translate(351.611328 0)"/>
      <use xlink:href="#DejaVuSans-73" transform="translate(392.724609 0)"/>
     </g>
    </g>
    <g id="line2d_18">
     <path d="M 312.448125 50.094688 
L 322.448125 50.094688 
L 332.448125 50.094688 
" style="fill: none; stroke: #ff7f0e; stroke-opacity: 0.8; stroke-width: 1.5; stroke-linecap: square"/>
    </g>
    <g id="text_19">
     <!-- 7D MA -->
     <g transform="translate(340.448125 53.594688) scale(0.1 -0.1)">
      <defs>
       <path id="DejaVuSans-44" d="M 1259 4147 
L 1259 519 
L 2022 519 
Q 2988 519 3436 956 
Q 3884 1394 3884 2338 
Q 3884 3275 3436 3711 
Q 2988 4147 2022 4147 
L 1259 4147 
z
M 628 4666 
L 1925 4666 
Q 3281 4666 3915 4102 
Q 4550 3538 4550 2338 
Q 4550 1131 3912 565 
Q 3275 0 1925 0 
L 628 0 
L 628 4666 
z
" transform="scale(0.015625)"/>
       <path id="DejaVuSans-4d" d="M 628 4666 
L 1569 4666 
L 2759 1491 
L 3956 4666 
L 4897 4666 
L 4897 0 
L 4281 0 
L 4281 4097 
L 3078 897 
L 2444 897 
L 1241 4097 
L 1241 0 
L 628 0 
L 628 4666 
z
" transform="scale(0.015625)"/>
      </defs>
      <use xlink:href="#DejaVuSans-37"/>
      <use xlink:href="#DejaVuSans-44" transform="translate(63.623047 0)"/>
      <use xlink:href="#DejaVuSans-20" transform="translate(140.625 0)"/>
      <use xlink:href="#DejaVuSans-4d" transform="translate(172.412109 0)"/>
      <use xlink:href="#DejaVuSans-41" transform="translate(258.691406 0)"/>
     </g>
    </g>
    <g id="line2d_19">
     <path d="M 312.448125 64.772812 
L 322.448125 64.772812 
L 332.448125 64.772812 
" style="fill: none; stroke: #2ca02c; stroke-opacity: 0.8; stroke-width: 1.5; stroke-linecap: square"/>
    </g>
    <g id="text_20">
     <!-- YTD mean -->
     <g transform="translate(340.448125 68.272812) scale(0.1 -0.1)">
      <defs>
       <path id="DejaVuSans-59" d="M -13 4666 
L 666 4666 
L 1959 2747 
L 3244 4666 
L 3922 4666 
L 2272 2222 
L 2272 0 
L 1638 0 
L 1638 2222 
L -13 4666 
z
" transform="scale(0.015625)"/>
       <path id="DejaVuSans-6d" d="M 3328 2828 
Q 3544 3216 3844 3400 
Q 4144 3584 4550 3584 
Q 5097 3584 5394 3201 
Q 5691 2819 5691 2113 
L 5691 0 
L 5113 0 
L 5113 2094 
Q 5113 2597 4934 2840 
Q 4756 3084 4391 3084 
Q 3944 3084 3684 2787 
Q 3425 2491 3425 1978 
L 3425 0 
L 2847 0 
L 2847 2094 
Q 2847 2600 2669 2842 
Q 2491 3084 2119 3084 
Q 1678 3084 1418 2786 
Q 1159 2488 1159 1978 
L 1159 0 
L 581 0 
L 581 3500 
L 1159 3500 
L 1159 2956 
Q 1356 3278 1631 3431 
Q 1906 3584 2284 3584 
Q 2666 3584 2933 3390 
Q 3200 3197 3328 2828 
z
" transform="scale(0.015625)"/>
       <path id="DejaVuSans-6e" d="M 3513 2113 
L 3513 0 
L 2938 0 
L 2938 2094 
Q 2938 2591 2744 2837 
Q 2550 3084 2163 3084 
Q 1697 3084 1428 2787 
Q 1159 2491 1159 1978 
L 1159 0 
L 581 0 
L 581 3500 
L 1159 3500 
L 1159 2956 
Q 1366 3272 1645 3428 
Q 1925 3584 2291 3584 
Q 2894 3584 3203 3211 
Q 3513 2838 3513 2113 
z
" transform="scale(0.015625)"/>
      </defs>
      <use xlink:href="#DejaVuSans-59"/>
      <use xlink:href="#DejaVuSans-54" transform="translate(61.083984 0)"/>
      <use xlink:href="#DejaVuSans-44" transform="translate(122.167969 0)"/>
      <use xlink:href="#DejaVuSans-20" transform="translate(199.169922 0)"/>
      <use xlink:href="#DejaVuSans-6d" transform="translate(230.957031 0)"/>
      <use xlink:href="#DejaVuSans-65" transform="translate(328.369141 0)"/>
      <use xlink:href="#DejaVuSans-61" transform="translate(389.892578 0)"/>
      <use xlink:href="#DejaVuSans-6e" transform="translate(451.171875 0)"/>
     </g>
    </g>
   </g>
  </g>
 </g>
 <defs>
  <clipPath id="p0c735aba0c">
   <rect x="43.78125" y="22.318125" width="357.12" height="235.008"/>
  </clipPath>
 </defs>
</svg>